<mxfile host="app.diagrams.net" modified="2024-10-28T00:00:00.000Z" agent="Claude" etag="finnigram-arch" version="24.7.17">
  <diagram name="Finnigram Architecture" id="finnigram-system">
    <mxGraphModel dx="1422" dy="794" grid="1" gridSize="10" guides="1" tooltips="1" connect="1" arrows="1" fold="1" page="1" pageScale="1" pageWidth="1169" pageHeight="827" math="0" shadow="0">
      <root>
        <mxCell id="0" />
        <mxCell id="1" parent="0" />
        
        <!-- Mobile App -->
        <mxCell id="mobile-app" value="📱 Mobile App&#xa;React Native + Expo&#xa;Port: 8081" style="rounded=1;whiteSpace=wrap;html=1;fillColor=#e1f5fe;strokeColor=#01579b;fontStyle=1" vertex="1" parent="1">
          <mxGeometry x="480" y="40" width="160" height="80" as="geometry" />
        </mxCell>
        
        <!-- User Service -->
        <mxCell id="user-service" value="👤 User Service&#xa;Port: 3001&#xa;• Authentication&#xa;• User profiles&#xa;• JWT validation" style="rounded=1;whiteSpace=wrap;html=1;fillColor=#f3e5f5;strokeColor=#4a148c;fontStyle=1" vertex="1" parent="1">
          <mxGeometry x="120" y="200" width="160" height="100" as="geometry" />
        </mxCell>
        
        <!-- Message Service -->
        <mxCell id="message-service" value="💬 Message Service&#xa;Port: 3002&#xa;• Message CRUD&#xa;• Conversations&#xa;• Redis pub" style="rounded=1;whiteSpace=wrap;html=1;fillColor=#f3e5f5;strokeColor=#4a148c;fontStyle=1" vertex="1" parent="1">
          <mxGeometry x="480" y="200" width="160" height="100" as="geometry" />
        </mxCell>
        
        <!-- Realtime Service -->
        <mxCell id="realtime-service" value="⚡ Realtime Service&#xa;Port: 3003&#xa;• WebSocket mgmt&#xa;• Typing indicators&#xa;• Redis sub" style="rounded=1;whiteSpace=wrap;html=1;fillColor=#f3e5f5;strokeColor=#4a148c;fontStyle=1" vertex="1" parent="1">
          <mxGeometry x="840" y="200" width="160" height="100" as="geometry" />
        </mxCell>
        
        <!-- User Database -->
        <mxCell id="user-db" value="🐘 PostgreSQL&#xa;User Data" style="shape=cylinder3;whiteSpace=wrap;html=1;boundedLbl=1;backgroundOutline=1;size=15;fillColor=#fff3e0;strokeColor=#e65100;fontStyle=1" vertex="1" parent="1">
          <mxGeometry x="120" y="400" width="160" height="80" as="geometry" />
        </mxCell>
        
        <!-- Message Database -->
        <mxCell id="message-db" value="🐘 PostgreSQL&#xa;Messages &amp; Conversations" style="shape=cylinder3;whiteSpace=wrap;html=1;boundedLbl=1;backgroundOutline=1;size=15;fillColor=#fff3e0;strokeColor=#e65100;fontStyle=1" vertex="1" parent="1">
          <mxGeometry x="480" y="400" width="160" height="80" as="geometry" />
        </mxCell>
        
        <!-- Redis -->
        <mxCell id="redis" value="🔴 Redis&#xa;Pub/Sub + Caching" style="shape=cylinder3;whiteSpace=wrap;html=1;boundedLbl=1;backgroundOutline=1;size=15;fillColor=#ffebee;strokeColor=#c62828;fontStyle=1" vertex="1" parent="1">
          <mxGeometry x="680" y="400" width="160" height="80" as="geometry" />
        </mxCell>
        
        <!-- Connections -->
        <mxCell id="mobile-to-user" value="REST API" style="endArrow=classic;html=1;rounded=0;exitX=0.25;exitY=1;exitDx=0;exitDy=0;entryX=0.5;entryY=0;entryDx=0;entryDy=0;" edge="1" parent="1" source="mobile-app" target="user-service">
          <mxGeometry width="50" height="50" relative="1" as="geometry">
            <mxPoint x="520" y="140" as="sourcePoint" />
            <mxPoint x="570" y="90" as="targetPoint" />
          </mxGeometry>
        </mxCell>
        
        <mxCell id="mobile-to-message" value="REST API" style="endArrow=classic;html=1;rounded=0;exitX=0.5;exitY=1;exitDx=0;exitDy=0;entryX=0.5;entryY=0;entryDx=0;entryDy=0;" edge="1" parent="1" source="mobile-app" target="message-service">
          <mxGeometry width="50" height="50" relative="1" as="geometry">
            <mxPoint x="520" y="140" as="sourcePoint" />
            <mxPoint x="570" y="90" as="targetPoint" />
          </mxGeometry>
        </mxCell>
        
        <mxCell id="mobile-to-realtime" value="WebSocket" style="endArrow=classic;html=1;rounded=0;exitX=0.75;exitY=1;exitDx=0;exitDy=0;entryX=0.5;entryY=0;entryDx=0;entryDy=0;" edge="1" parent="1" source="mobile-app" target="realtime-service">
          <mxGeometry width="50" height="50" relative="1" as="geometry">
            <mxPoint x="520" y="140" as="sourcePoint" />
            <mxPoint x="570" y="90" as="targetPoint" />
          </mxGeometry>
        </mxCell>
        
        <!-- Service to DB connections -->
        <mxCell id="user-to-db" value="" style="endArrow=classic;html=1;rounded=0;exitX=0.5;exitY=1;exitDx=0;exitDy=0;entryX=0.5;entryY=0;entryDx=0;entryDy=0;entryPerimeter=0;" edge="1" parent="1" source="user-service" target="user-db">
          <mxGeometry width="50" height="50" relative="1" as="geometry">
            <mxPoint x="520" y="350" as="sourcePoint" />
            <mxPoint x="570" y="300" as="targetPoint" />
          </mxGeometry>
        </mxCell>
        
        <mxCell id="message-to-db" value="" style="endArrow=classic;html=1;rounded=0;exitX=0.5;exitY=1;exitDx=0;exitDy=0;entryX=0.5;entryY=0;entryDx=0;entryDy=0;entryPerimeter=0;" edge="1" parent="1" source="message-service" target="message-db">
          <mxGeometry width="50" height="50" relative="1" as="geometry">
            <mxPoint x="520" y="350" as="sourcePoint" />
            <mxPoint x="570" y="300" as="targetPoint" />
          </mxGeometry>
        </mxCell>
        
        <mxCell id="message-to-redis" value="Publish" style="endArrow=classic;html=1;rounded=0;exitX=0.75;exitY=1;exitDx=0;exitDy=0;entryX=0.25;entryY=0;entryDx=0;entryDy=0;entryPerimeter=0;" edge="1" parent="1" source="message-service" target="redis">
          <mxGeometry width="50" height="50" relative="1" as="geometry">
            <mxPoint x="520" y="350" as="sourcePoint" />
            <mxPoint x="570" y="300" as="targetPoint" />
          </mxGeometry>
        </mxCell>
        
        <mxCell id="realtime-to-redis" value="Subscribe" style="endArrow=classic;html=1;rounded=0;exitX=0.25;exitY=1;exitDx=0;exitDy=0;entryX=0.75;entryY=0;entryDx=0;entryDy=0;entryPerimeter=0;" edge="1" parent="1" source="realtime-service" target="redis">
          <mxGeometry width="50" height="50" relative="1" as="geometry">
            <mxPoint x="520" y="350" as="sourcePoint" />
            <mxPoint x="570" y="300" as="targetPoint" />
          </mxGeometry>
        </mxCell>
        
        <!-- Railway Cloud -->
        <mxCell id="railway-cloud" value="☁️ Railway Platform&#xa;Deployment &amp; Hosting" style="rounded=1;whiteSpace=wrap;html=1;fillColor=#e8f5e8;strokeColor=#1b5e20;fontStyle=1;dashed=1" vertex="1" parent="1">
          <mxGeometry x="40" y="520" width="920" height="60" as="geometry" />
        </mxCell>
        
        <!-- Message Flow -->
        <mxCell id="flow-title" value="📨 Message Flow" style="text;html=1;strokeColor=none;fillColor=none;align=center;verticalAlign=middle;whiteSpace=wrap;rounded=0;fontStyle=1;fontSize=16;" vertex="1" parent="1">
          <mxGeometry x="40" y="600" width="120" height="30" as="geometry" />
        </mxCell>
        
        <mxCell id="flow-1" value="1. Client sends message" style="rounded=1;whiteSpace=wrap;html=1;fillColor=#fff3e0;strokeColor=#e65100" vertex="1" parent="1">
          <mxGeometry x="40" y="640" width="140" height="40" as="geometry" />
        </mxCell>
        
        <mxCell id="flow-2" value="2. Store in PostgreSQL" style="rounded=1;whiteSpace=wrap;html=1;fillColor=#fff3e0;strokeColor=#e65100" vertex="1" parent="1">
          <mxGeometry x="200" y="640" width="140" height="40" as="geometry" />
        </mxCell>
        
        <mxCell id="flow-3" value="3. Publish to Redis" style="rounded=1;whiteSpace=wrap;html=1;fillColor=#fff3e0;strokeColor=#e65100" vertex="1" parent="1">
          <mxGeometry x="360" y="640" width="140" height="40" as="geometry" />
        </mxCell>
        
        <mxCell id="flow-4" value="4. Realtime subscribes" style="rounded=1;whiteSpace=wrap;html=1;fillColor=#fff3e0;strokeColor=#e65100" vertex="1" parent="1">
          <mxGeometry x="520" y="640" width="140" height="40" as="geometry" />
        </mxCell>
        
        <mxCell id="flow-5" value="5. Broadcast via WebSocket" style="rounded=1;whiteSpace=wrap;html=1;fillColor=#fff3e0;strokeColor=#e65100" vertex="1" parent="1">
          <mxGeometry x="680" y="640" width="140" height="40" as="geometry" />
        </mxCell>
        
        <!-- Flow arrows -->
        <mxCell id="flow-arrow-1" value="" style="endArrow=classic;html=1;rounded=0;exitX=1;exitY=0.5;exitDx=0;exitDy=0;entryX=0;entryY=0.5;entryDx=0;entryDy=0;" edge="1" parent="1" source="flow-1" target="flow-2">
          <mxGeometry width="50" height="50" relative="1" as="geometry">
            <mxPoint x="400" y="710" as="sourcePoint" />
            <mxPoint x="450" y="660" as="targetPoint" />
          </mxGeometry>
        </mxCell>
        
        <mxCell id="flow-arrow-2" value="" style="endArrow=classic;html=1;rounded=0;exitX=1;exitY=0.5;exitDx=0;exitDy=0;entryX=0;entryY=0.5;entryDx=0;entryDy=0;" edge="1" parent="1" source="flow-2" target="flow-3">
          <mxGeometry width="50" height="50" relative="1" as="geometry">
            <mxPoint x="400" y="710" as="sourcePoint" />
            <mxPoint x="450" y="660" as="targetPoint" />
          </mxGeometry>
        </mxCell>
        
        <mxCell id="flow-arrow-3" value="" style="endArrow=classic;html=1;rounded=0;exitX=1;exitY=0.5;exitDx=0;exitDy=0;entryX=0;entryY=0.5;entryDx=0;entryDy=0;" edge="1" parent="1" source="flow-3" target="flow-4">
          <mxGeometry width="50" height="50" relative="1" as="geometry">
            <mxPoint x="400" y="710" as="sourcePoint" />
            <mxPoint x="450" y="660" as="targetPoint" />
          </mxGeometry>
        </mxCell>
        
        <mxCell id="flow-arrow-4" value="" style="endArrow=classic;html=1;rounded=0;exitX=1;exitY=0.5;exitDx=0;exitDy=0;entryX=0;entryY=0.5;entryDx=0;entryDy=0;" edge="1" parent="1" source="flow-4" target="flow-5">
          <mxGeometry width="50" height="50" relative="1" as="geometry">
            <mxPoint x="400" y="710" as="sourcePoint" />
            <mxPoint x="450" y="660" as="targetPoint" />
          </mxGeometry>
        </mxCell>
        
      </root>
    </mxGraphModel>
  </diagram>
</mxfile>